<svg width="359" height="136" viewBox="0 0 359 136" fill="none" xmlns="http://www.w3.org/2000/svg">
<g filter="url(#filter0_d_694_564)">
<rect x="233" y="10" width="116" height="116" rx="9" fill="white"/>
</g>
<path d="M333.336 78.2278C311.969 78.2573 262.061 127.584 239.73 74.291C250.826 53.5296 260.142 27.5483 295.754 27.4991L295.785 49.4559C268.447 52.4609 258.336 62.1913 246.857 78.0903C258.455 95.2142 288.781 49.198 333.296 49.1365L333.336 78.2278Z" fill="url(#paint0_linear_694_564)"/>
<path d="M35.4417 105.115C24.5515 105.115 18.1504 98.952 18.1504 88.3749C18.1504 84.0441 19.2311 79.1303 21.1431 74.0499L23.1382 74.7162C22.0575 77.881 21.5587 80.8793 21.5587 83.6277C21.5587 91.9561 26.9623 96.7866 36.0236 96.7866C43.6717 96.7866 50.821 94.1215 55.8089 90.0406C55.5595 85.3766 53.98 78.3807 49.6572 68.803L52.068 62.3901H54.1463C57.2221 70.1356 58.3028 78.2975 58.3028 84.2107C58.3028 89.291 58.0534 91.7896 56.7233 96.8699C51.6523 101.95 43.7548 105.115 35.4417 105.115ZM36.6887 75.0494L31.6176 69.969L36.5224 64.8886H37.1875L42.2585 69.969L37.3537 75.0494H36.6887Z" fill="white"/>
<path d="M76.5093 109.696L61.2131 105.032V102.533C74.9298 100.868 84.8224 96.1204 87.4826 89.7074H78.1719C71.272 89.7074 67.4479 85.4599 67.4479 79.047C67.4479 71.0517 73.5997 62.3901 79.3357 62.3901C85.9031 62.3901 91.3066 71.2183 91.3066 81.962C91.3066 82.0453 91.3066 82.1285 91.3066 82.2118H95.4632V88.0417L93.8006 89.7074H90.0597C87.9814 96.6201 83.1598 103.699 76.5093 109.696ZM79.0032 82.2118H87.8151C86.3188 75.8822 81.6634 69.8857 77.3406 69.8857C75.4286 69.8857 73.8491 70.6353 72.4358 72.1344C71.0226 73.7168 70.3575 75.5491 70.3575 77.6312C70.3575 80.8793 73.6828 82.2118 79.0032 82.2118Z" fill="white"/>
<path d="M93.8389 89.7074V83.8775L95.5015 82.2118C99.7412 82.2118 102.9 81.4623 105.062 80.0464L106.891 68.22H109.384V75.9655C109.384 80.6294 111.795 82.2118 118.861 82.2118V88.6247L117.282 89.7074C110.631 89.7074 106.225 86.9591 105.228 82.6283H104.979C104.646 83.9608 104.397 85.2934 103.815 86.6259C101.404 88.708 98.0786 89.7074 93.8389 89.7074ZM110.964 107.697L105.893 102.617L110.798 97.5362H111.463L116.534 102.617L111.629 107.697H110.964ZM101.986 107.697L96.9148 102.617L101.82 97.5362H102.485L107.556 102.617L102.651 107.697H101.986Z" fill="white"/>
<path d="M117.22 89.7074V83.8775L118.882 82.2118C122.54 82.2118 125.782 82.0453 128.609 81.7954C126.198 79.3802 124.701 76.3819 124.701 73.1338C124.701 65.6382 131.352 56.5602 137.005 56.5602C142.076 56.5602 147.064 63.2229 147.064 70.2188C147.064 74.2998 145.152 78.0476 142.076 81.0459C145.484 81.7954 149.142 82.2118 152.883 82.2118V88.0417L151.22 89.7074C145.152 89.7074 139.333 88.3749 134.677 86.0429C129.689 88.3749 123.621 89.7074 117.22 89.7074ZM127.611 70.3854C127.611 74.4664 131.934 77.9643 138.252 80.0464C142.159 78.7139 144.071 76.7983 144.071 74.2165C144.071 68.9696 139.582 64.0558 134.594 64.0558C130.604 64.0558 127.611 66.8042 127.611 70.3854ZM135.924 50.1473L130.853 45.0669L135.758 39.9865H136.423L141.494 45.0669L136.589 50.1473H135.924Z" fill="white"/>
<path d="M151.235 89.7074V83.9608L152.898 82.2118C162.791 82.2118 171.436 80.9626 177.006 78.6306C177.006 78.3807 177.006 78.0476 177.006 77.7977C177.006 74.8828 176.674 72.0511 176.092 69.386L173.681 74.9661C171.27 76.2153 169.109 76.6318 166.199 76.6318C159.299 76.6318 155.475 72.3842 155.475 65.9713C155.475 57.976 161.627 49.3144 167.363 49.3144C174.595 49.3144 179.999 58.8921 179.999 71.4681C179.999 77.1315 179.084 80.8793 177.172 85.1268C170.937 88.0418 161.46 89.7074 151.235 89.7074ZM158.385 64.5555C158.385 67.8036 161.71 69.1362 167.03 69.1362C171.104 69.1362 173.598 68.5532 175.676 67.8036C173.681 61.2241 169.94 56.81 165.368 56.81C163.456 56.81 161.876 57.5596 160.463 59.0587C159.05 60.6411 158.385 62.4734 158.385 64.5555ZM170.771 42.9015L165.7 37.8211L170.605 32.7408H171.27L176.341 37.8211L171.436 42.9015H170.771ZM161.793 42.9015L156.722 37.8211L161.627 32.7408H162.292L167.363 37.8211L162.458 42.9015H161.793Z" fill="white"/>
<path d="M198.203 109.696L182.906 105.032V102.533C199.117 100.035 209.924 92.9555 209.924 83.2112C209.924 82.1285 209.841 81.0458 209.592 79.8799L207.347 85.1268C204.936 86.3761 202.775 86.7925 199.865 86.7925C192.965 86.7925 189.141 82.545 189.141 76.1321C189.141 68.1367 195.293 59.4751 201.029 59.4751C207.596 59.4751 213 68.3033 213 79.047C213 84.1274 211.67 89.291 209.093 94.7045C206.433 100.118 202.775 105.115 198.203 109.696ZM192.051 74.7162C192.051 77.9643 195.376 79.2969 200.697 79.2969C204.77 79.2969 207.347 78.7139 209.093 77.9643C207.43 72.2177 203.024 66.9708 199.034 66.9708C197.122 66.9708 195.542 67.7203 194.129 69.2194C192.716 70.8018 192.051 72.6341 192.051 74.7162Z" fill="white"/>
<path d="M7.64809 58.0593L0 55.7273V54.4781C7.44026 52.6874 11.8462 49.3144 11.8462 45.4417C11.8462 43.1097 10.9318 41.1942 8.10531 37.6129L9.31072 34.4065H10.3499C12.3034 37.2382 13.3842 40.3613 13.3842 43.1514C13.3842 47.8153 11.5968 52.6042 7.64809 58.0593Z" fill="#C48E1B"/>
<path d="M26.6498 47.2323L25.8185 48.0652C23.5324 48.0652 21.9113 47.5238 20.9137 46.3995C19.8746 45.3168 19.3342 43.4012 19.2927 40.6528L18.7939 20.7062L20.6643 17H21.9113V40.6528C21.9113 43.3596 23.1167 44.3173 26.6498 44.3173V47.2323Z" fill="#C48E1B"/>
<path d="M25.8 48.0652V45.1502L26.6313 44.3173C28.1276 44.3173 29.6656 43.9426 30.6216 43.3179C31.4529 39.0704 33.9884 35.864 36.5655 35.864C37.4384 35.864 38.145 36.1138 38.7685 36.6552C39.392 37.1965 40.057 38.1959 40.8467 39.7367L41.8028 41.6106C42.8003 43.6094 43.9226 44.3173 46.1256 44.3173V47.2323L45.2943 48.0652C43.2991 48.0652 42.0106 47.6071 40.8883 46.3162C40.5558 47.4822 40.2233 48.5232 39.9323 49.1479C36.3161 48.4816 32.9493 47.4405 30.6216 46.2745C29.2915 47.3156 27.5042 48.0652 25.8 48.0652ZM35.4432 39.6118C33.9468 39.6118 32.6999 40.9443 32.1595 42.9848C34.3625 43.9842 37.5215 44.942 40.1817 45.4C39.9739 45.0669 39.766 44.6921 39.5582 44.2757L38.6022 42.4018C37.5631 40.278 36.6071 39.6118 35.4432 39.6118Z" fill="#C48E1B"/>
<path d="M45.2839 48.0652V45.1502L46.1152 44.3173C48.6507 44.3173 50.8121 43.2346 52.5994 41.0692H52.7657C54.6777 43.2346 56.8807 44.3173 59.4162 44.3173V47.5238L58.6265 48.0652C55.9247 48.0652 53.597 46.8992 51.6434 44.6088C50.3133 46.8992 48.1935 48.0652 45.2839 48.0652ZM52.5579 33.0323L50.1055 30.617L52.4748 28.2018H52.8073L55.2597 30.617L52.8904 33.0323H52.5579ZM50.3965 37.8628L47.861 35.3226L50.3133 32.7824H50.6459L52.7657 34.9062L54.8024 32.7824H55.135L57.6705 35.3226L55.2181 37.8628H54.8856L52.7657 35.739L50.729 37.8628H50.3965Z" fill="#C48E1B"/>
<path d="M58.5979 48.0652V45.1502L59.4292 44.3173C62.2141 44.3173 63.7936 43.776 64.999 42.8182C64.8743 42.1936 64.7081 41.444 64.5834 40.6528L63.8352 36.1555L65.0406 32.949H66.0797L66.8279 39.3619C67.3267 43.3179 68.1996 44.3173 71.6911 44.3173V47.2323L70.8598 48.0652C67.9086 48.0652 66.3291 47.0241 65.3315 43.9009H65.2068C65.0822 44.6088 64.9159 45.4 64.7081 46.1912C63.5027 47.3156 61.3828 48.0652 58.5979 48.0652ZM67.1604 29.7425L64.6249 27.2024L67.0773 24.6622H67.4098L69.9453 27.2024L67.493 29.7425H67.1604ZM62.6713 29.7425L60.1358 27.2024L62.5882 24.6622H62.9207L65.4562 27.2024L63.0039 29.7425H62.6713Z" fill="#C48E1B"/>
<path d="M70.6942 48.0652V45.1502L71.5255 44.3173C74.6845 44.3173 76.3887 43.5678 78.0097 41.3607L79.3814 39.5285L80.4205 40.2364L79.0904 42.1519C81.2934 43.776 83.2054 44.7338 85.4916 44.7338C87.1126 44.7338 87.653 43.9009 88.1102 41.569L88.6506 38.7789H89.8975V41.569C91.6017 43.0264 94.0957 44.1091 95.7999 44.1508C95.6336 43.193 94.3451 40.2364 93.4722 39.0704L94.6776 35.864H95.7167C96.6727 37.9044 97.0884 39.6118 97.0884 41.2775C97.0884 43.4429 96.3402 45.9414 94.7191 47.8153C92.3915 47.6487 89.9391 46.7742 88.1102 44.9836L87.9855 45.4417C87.4452 47.3156 86.3644 48.4816 84.8265 48.4816C82.8314 48.4816 79.7555 47.274 77.1369 44.9003C75.2664 47.2323 73.3959 48.0652 70.6942 48.0652Z" fill="#C48E1B"/>
<path d="M103.523 48.0652L102.899 20.7062L104.77 17H106.017V43.6094L104.77 48.0652H103.523Z" fill="#C48E1B"/>
<defs>
<filter id="filter0_d_694_564" x="223" y="0" width="136" height="136" filterUnits="userSpaceOnUse" color-interpolation-filters="sRGB">
<feFlood flood-opacity="0" result="BackgroundImageFix"/>
<feColorMatrix in="SourceAlpha" type="matrix" values="0 0 0 0 0 0 0 0 0 0 0 0 0 0 0 0 0 0 127 0" result="hardAlpha"/>
<feOffset/>
<feGaussianBlur stdDeviation="5"/>
<feComposite in2="hardAlpha" operator="out"/>
<feColorMatrix type="matrix" values="0 0 0 0 0 0 0 0 0 0 0 0 0 0 0 0 0 0 0.25 0"/>
<feBlend mode="normal" in2="BackgroundImageFix" result="effect1_dropShadow_694_564"/>
<feBlend mode="normal" in="SourceGraphic" in2="effect1_dropShadow_694_564" result="shape"/>
</filter>
<linearGradient id="paint0_linear_694_564" x1="272.079" y1="118.709" x2="316.663" y2="65.2076" gradientUnits="userSpaceOnUse">
<stop stop-color="#036335"/>
<stop offset="1" stop-color="#34C507"/>
</linearGradient>
</defs>
</svg>
