<svg width="359" height="137" viewBox="0 0 359 137" fill="none" xmlns="http://www.w3.org/2000/svg">
<g filter="url(#filter0_d_880_466)">
<rect x="233" y="10" width="116" height="117" rx="9" fill="url(#paint0_linear_880_466)"/>
</g>
<path d="M333.336 78.5663C311.969 78.5958 262.061 127.923 239.73 74.6294C250.826 53.868 260.142 27.8867 295.754 27.8375L295.785 49.7944C268.447 52.7994 258.336 62.5297 246.857 78.4287C258.455 95.5526 288.781 49.5365 333.296 49.475L333.336 78.5663Z" fill="white"/>
<path d="M35.4417 104.419C24.5515 104.419 18.1504 98.2563 18.1504 87.6792C18.1504 83.3484 19.2311 78.4346 21.1431 73.3542L23.1382 74.0205C22.0575 77.1853 21.5587 80.1835 21.5587 82.9319C21.5587 91.2604 26.9623 96.0909 36.0236 96.0909C43.6717 96.0909 50.821 93.4258 55.8089 89.3449C55.5595 84.6809 53.98 77.685 49.6572 68.1073L52.068 61.6944H54.1463C57.2221 69.4398 58.3028 77.6017 58.3028 83.5149C58.3028 88.5953 58.0534 91.0938 56.7233 96.1742C51.6523 101.255 43.7548 104.419 35.4417 104.419ZM36.6887 74.3536L31.6176 69.2733L36.5224 64.1929H37.1875L42.2585 69.2733L37.3537 74.3536H36.6887Z" fill="black"/>
<path d="M76.5093 109L61.2131 104.336V101.838C74.9298 100.172 84.8224 95.4246 87.4826 89.0117H78.1719C71.272 89.0117 67.4479 84.7642 67.4479 78.3513C67.4479 70.356 73.5997 61.6944 79.3357 61.6944C85.9031 61.6944 91.3066 70.5225 91.3066 81.2663C91.3066 81.3495 91.3066 81.4328 91.3066 81.5161H95.4632V87.346L93.8006 89.0117H90.0597C87.9814 95.9243 83.1598 103.004 76.5093 109ZM79.0032 81.5161H87.8151C86.3188 75.1865 81.6634 69.19 77.3406 69.19C75.4286 69.19 73.8491 69.9395 72.4358 71.4387C71.0226 73.0211 70.3575 74.8533 70.3575 76.9354C70.3575 80.1835 73.6828 81.5161 79.0032 81.5161Z" fill="black"/>
<path d="M93.8389 89.0117V83.1818L95.5015 81.5161C99.7412 81.5161 102.9 80.7665 105.062 79.3507L106.891 67.5243H109.384V75.2697C109.384 79.9337 111.795 81.5161 118.861 81.5161V87.929L117.282 89.0117C110.631 89.0117 106.225 86.2633 105.228 81.9325H104.979C104.646 83.2651 104.397 84.5976 103.815 85.9302C101.404 88.0123 98.0786 89.0117 93.8389 89.0117ZM110.964 107.001L105.893 101.921L110.798 96.8405H111.463L116.534 101.921L111.629 107.001H110.964ZM101.986 107.001L96.9148 101.921L101.82 96.8405H102.485L107.556 101.921L102.651 107.001H101.986Z" fill="black"/>
<path d="M117.22 89.0117V83.1818L118.882 81.5161C122.54 81.5161 125.782 81.3495 128.609 81.0997C126.198 78.6844 124.701 75.6862 124.701 72.4381C124.701 64.9425 131.352 55.8644 137.005 55.8644C142.076 55.8644 147.064 62.5272 147.064 69.5231C147.064 73.604 145.152 77.3519 142.076 80.3501C145.484 81.0997 149.142 81.5161 152.883 81.5161V87.346L151.22 89.0117C145.152 89.0117 139.333 87.6792 134.677 85.3472C129.689 87.6792 123.621 89.0117 117.22 89.0117ZM127.611 69.6897C127.611 73.7706 131.934 77.2686 138.252 79.3507C142.159 78.0181 144.071 76.1026 144.071 73.5208C144.071 68.2738 139.582 63.3601 134.594 63.3601C130.604 63.3601 127.611 66.1084 127.611 69.6897ZM135.924 49.4515L130.853 44.3712L135.758 39.2908H136.423L141.494 44.3712L136.589 49.4515H135.924Z" fill="black"/>
<path d="M151.235 89.0117V83.2651L152.898 81.5161C162.791 81.5161 171.436 80.2668 177.006 77.9349C177.006 77.685 177.006 77.3519 177.006 77.102C177.006 74.1871 176.674 71.3554 176.092 68.6903L173.681 74.2703C171.27 75.5196 169.109 75.936 166.199 75.936C159.299 75.936 155.475 71.6885 155.475 65.2756C155.475 57.2803 161.627 48.6187 167.363 48.6187C174.595 48.6187 179.999 58.1964 179.999 70.7724C179.999 76.4357 179.084 80.1835 177.172 84.4311C170.937 87.346 161.46 89.0117 151.235 89.0117ZM158.385 63.8598C158.385 67.1079 161.71 68.4404 167.03 68.4404C171.104 68.4404 173.598 67.8574 175.676 67.1079C173.681 60.5284 169.94 56.1143 165.368 56.1143C163.456 56.1143 161.876 56.8639 160.463 58.363C159.05 59.9454 158.385 61.7776 158.385 63.8598ZM170.771 42.2058L165.7 37.1254L170.605 32.045H171.27L176.341 37.1254L171.436 42.2058H170.771ZM161.793 42.2058L156.722 37.1254L161.627 32.045H162.292L167.363 37.1254L162.458 42.2058H161.793Z" fill="black"/>
<path d="M198.203 109L182.906 104.336V101.838C199.117 99.339 209.924 92.2598 209.924 82.5155C209.924 81.4328 209.841 80.3501 209.592 79.1841L207.347 84.4311C204.936 85.6803 202.775 86.0967 199.865 86.0967C192.965 86.0967 189.141 81.8492 189.141 75.4363C189.141 67.441 195.293 58.7794 201.029 58.7794C207.596 58.7794 213 67.6076 213 78.3513C213 83.4316 211.67 88.5953 209.093 94.0088C206.433 99.4223 202.775 104.419 198.203 109ZM192.051 74.0205C192.051 77.2686 195.376 78.6012 200.697 78.6012C204.77 78.6012 207.347 78.0181 209.093 77.2686C207.43 71.5219 203.024 66.275 199.034 66.275C197.122 66.275 195.542 67.0246 194.129 68.5237C192.716 70.1061 192.051 71.9384 192.051 74.0205Z" fill="black"/>
<path d="M7.64809 57.3636L0 55.0316V53.7823C7.44026 51.9917 11.8462 48.6187 11.8462 44.7459C11.8462 42.414 10.9318 40.4984 8.10531 36.9172L9.31072 33.7107H10.3499C12.3034 36.5424 13.3842 39.6656 13.3842 42.4556C13.3842 47.1196 11.5968 51.9084 7.64809 57.3636Z" fill="#C48E1B"/>
<path d="M26.6498 46.5366L25.8185 47.3694C23.5324 47.3694 21.9113 46.8281 20.9137 45.7037C19.8746 44.621 19.3342 42.7055 19.2927 39.9571L18.7939 20.0104L20.6643 16.3043H21.9113V39.9571C21.9113 42.6638 23.1167 43.6216 26.6498 43.6216V46.5366Z" fill="#C48E1B"/>
<path d="M25.8 47.3694V44.4545L26.6313 43.6216C28.1276 43.6216 29.6656 43.2468 30.6216 42.6222C31.4529 38.3747 33.9884 35.1682 36.5655 35.1682C37.4384 35.1682 38.145 35.4181 38.7685 35.9594C39.392 36.5008 40.057 37.5002 40.8467 39.041L41.8028 40.9149C42.8003 42.9137 43.9226 43.6216 46.1256 43.6216V46.5366L45.2943 47.3694C43.2991 47.3694 42.0106 46.9113 40.8883 45.6204C40.5558 46.7864 40.2233 47.8275 39.9323 48.4521C36.3161 47.7858 32.9493 46.7448 30.6216 45.5788C29.2915 46.6199 27.5042 47.3694 25.8 47.3694ZM35.4432 38.916C33.9468 38.916 32.6999 40.2486 32.1595 42.289C34.3625 43.2885 37.5215 44.2463 40.1817 44.7043C39.9739 44.3712 39.766 43.9964 39.5582 43.58L38.6022 41.7061C37.5631 39.5823 36.6071 38.916 35.4432 38.916Z" fill="#C48E1B"/>
<path d="M45.2839 47.3694V44.4545L46.1152 43.6216C48.6507 43.6216 50.8121 42.5389 52.5994 40.3735H52.7657C54.6777 42.5389 56.8807 43.6216 59.4162 43.6216V46.8281L58.6265 47.3694C55.9247 47.3694 53.597 46.2034 51.6434 43.9131C50.3133 46.2034 48.1935 47.3694 45.2839 47.3694ZM52.5579 32.3365L50.1055 29.9213L52.4748 27.506H52.8073L55.2597 29.9213L52.8904 32.3365H52.5579ZM50.3965 37.1671L47.861 34.6269L50.3133 32.0867H50.6459L52.7657 34.2104L54.8024 32.0867H55.135L57.6705 34.6269L55.2181 37.1671H54.8856L52.7657 35.0433L50.729 37.1671H50.3965Z" fill="#C48E1B"/>
<path d="M58.5979 47.3694V44.4545L59.4292 43.6216C62.2141 43.6216 63.7936 43.0803 64.999 42.1225C64.8743 41.4979 64.7081 40.7483 64.5834 39.9571L63.8352 35.4597L65.0406 32.2533H66.0797L66.8279 38.6662C67.3267 42.6222 68.1996 43.6216 71.6911 43.6216V46.5366L70.8598 47.3694C67.9086 47.3694 66.3291 46.3284 65.3315 43.2052H65.2068C65.0822 43.9131 64.9159 44.7043 64.7081 45.4955C63.5027 46.6198 61.3828 47.3694 58.5979 47.3694ZM67.1604 29.0468L64.6249 26.5066L67.0773 23.9664H67.4098L69.9453 26.5066L67.493 29.0468H67.1604ZM62.6713 29.0468L60.1358 26.5066L62.5882 23.9664H62.9207L65.4562 26.5066L63.0039 29.0468H62.6713Z" fill="#C48E1B"/>
<path d="M70.6942 47.3694V44.4545L71.5255 43.6216C74.6845 43.6216 76.3887 42.8721 78.0097 40.665L79.3814 38.8327L80.4205 39.5407L79.0904 41.4562C81.2934 43.0803 83.2054 44.038 85.4916 44.038C87.1126 44.038 87.653 43.2052 88.1102 40.8732L88.6506 38.0832H89.8975V40.8732C91.6017 42.3307 94.0957 43.4134 95.7999 43.455C95.6336 42.4973 94.3451 39.5407 93.4722 38.3747L94.6776 35.1682H95.7167C96.6727 37.2087 97.0884 38.916 97.0884 40.5817C97.0884 42.7471 96.3402 45.2457 94.7191 47.1196C92.3915 46.953 89.9391 46.0785 88.1102 44.2879L87.9855 44.7459C87.4452 46.6198 86.3644 47.7858 84.8265 47.7858C82.8314 47.7858 79.7555 46.5782 77.1369 44.2046C75.2664 46.5366 73.3959 47.3694 70.6942 47.3694Z" fill="#C48E1B"/>
<path d="M103.523 47.3694L102.899 20.0104L104.77 16.3043H106.017V42.9137L104.77 47.3694H103.523Z" fill="#C48E1B"/>
<defs>
<filter id="filter0_d_880_466" x="223" y="0" width="136" height="137" filterUnits="userSpaceOnUse" color-interpolation-filters="sRGB">
<feFlood flood-opacity="0" result="BackgroundImageFix"/>
<feColorMatrix in="SourceAlpha" type="matrix" values="0 0 0 0 0 0 0 0 0 0 0 0 0 0 0 0 0 0 127 0" result="hardAlpha"/>
<feOffset/>
<feGaussianBlur stdDeviation="5"/>
<feComposite in2="hardAlpha" operator="out"/>
<feColorMatrix type="matrix" values="0 0 0 0 0 0 0 0 0 0 0 0 0 0 0 0 0 0 0.25 0"/>
<feBlend mode="normal" in2="BackgroundImageFix" result="effect1_dropShadow_880_466"/>
<feBlend mode="normal" in="SourceGraphic" in2="effect1_dropShadow_880_466" result="shape"/>
</filter>
<linearGradient id="paint0_linear_880_466" x1="251.235" y1="62.3827" x2="325.806" y2="103.569" gradientUnits="userSpaceOnUse">
<stop stop-color="#036335"/>
<stop offset="1" stop-color="#34C507"/>
</linearGradient>
</defs>
</svg>
